<?xml version="1.0" encoding="utf-8"?>
<!-- Generator: Adobe Illustrator 27.8.1, SVG Export Plug-In . SVG Version: 6.00 Build 0)  -->
<svg version="1.1" id="Layer_1" xmlns="http://www.w3.org/2000/svg" xmlns:xlink="http://www.w3.org/1999/xlink" x="0px" y="0px"
	 viewBox="0 0 2000 2000" style="enable-background:new 0 0 2000 2000;" xml:space="preserve">
<style type="text/css">
	.st0{fill:none;stroke:#231F20;stroke-width:3.7613;stroke-miterlimit:10;}
</style>
<g>
	<g>
		<ellipse class="st0" cx="1000" cy="1000" rx="338.4" ry="987.4"/>
		<ellipse class="st0" cx="1000" cy="1000" rx="363.2" ry="962.4"/>
		<ellipse class="st0" cx="1000" cy="1000" rx="388.2" ry="937.4"/>
		<ellipse class="st0" cx="1000" cy="1000" rx="413.2" ry="912.5"/>
		<ellipse class="st0" cx="1000" cy="1000" rx="438.2" ry="887.5"/>
		<ellipse class="st0" cx="1000" cy="1000" rx="463.2" ry="862.5"/>
		<ellipse class="st0" cx="1000" cy="1000" rx="488.1" ry="837.6"/>
		<ellipse class="st0" cx="1000" cy="1000" rx="513" ry="812.6"/>
		<ellipse class="st0" cx="1000" cy="1000" rx="538" ry="787.6"/>
		<ellipse class="st0" cx="1000" cy="1000" rx="563" ry="762.7"/>
		<ellipse class="st0" cx="1000" cy="1000" rx="588" ry="737.7"/>
		<ellipse class="st0" cx="1000" cy="1000" rx="612.9" ry="712.8"/>
		<ellipse class="st0" cx="1000" cy="1000" rx="637.9" ry="687.8"/>
		<circle class="st0" cx="1000" cy="1000" r="662.8"/>
		<ellipse class="st0" cx="1000" cy="1000" rx="687.8" ry="637.9"/>
		<ellipse class="st0" cx="1000" cy="1000" rx="712.8" ry="612.9"/>
		<ellipse class="st0" cx="1000" cy="1000" rx="737.7" ry="588"/>
		<ellipse class="st0" cx="1000" cy="1000" rx="762.7" ry="563"/>
		<ellipse class="st0" cx="1000" cy="1000" rx="787.6" ry="538"/>
		<ellipse class="st0" cx="1000" cy="1000" rx="812.6" ry="513"/>
		<ellipse class="st0" cx="1000" cy="1000" rx="837.6" ry="488.1"/>
		<ellipse class="st0" cx="1000" cy="1000" rx="862.5" ry="463.2"/>
		<ellipse class="st0" cx="1000" cy="1000" rx="887.5" ry="438.2"/>
		<ellipse class="st0" cx="1000" cy="1000" rx="912.5" ry="413.2"/>
		<ellipse class="st0" cx="1000" cy="1000" rx="937.4" ry="388.2"/>
		<ellipse class="st0" cx="1000" cy="1000" rx="962.4" ry="363.2"/>
		<ellipse class="st0" cx="1000" cy="1000" rx="987.4" ry="338.4"/>
	</g>
</g>
</svg>
